<svg id="Layer_2" xmlns="http://www.w3.org/2000/svg" xmlns:xlink="http://www.w3.org/1999/xlink" viewBox="0 0 650.46 650.46"><defs><style>.cls-1{fill:url(#linear-gradient);}.cls-2{fill:#fff;}</style><linearGradient id="linear-gradient" x1="95.26" y1="555.2" x2="546.64" y2="103.82" gradientUnits="userSpaceOnUse"><stop offset=".1" stop-color="#3f42ff"/><stop offset=".51" stop-color="#1599ff"/><stop offset=".93" stop-color="#2afed8"/></linearGradient></defs><g id="Layer_1-2"><circle class="cls-2" cx="325.23" cy="325.23" r="319.68"/><path class="cls-1" d="m325.23,0C145.61,0,0,145.61,0,325.23s145.61,325.23,325.23,325.23,325.23-145.61,325.23-325.23S504.85,0,325.23,0Zm184.44,309.16c-1.56,8.87-10.03,16.06-18.9,16.06h-165.54l-19.37,109.87c-1.56,8.87-10.02,16.07-18.9,16.07h-149.47c-8.87,0-14.8-7.19-13.23-16.07l16.54-93.8c1.56-8.87,10.03-16.07,18.9-16.07h165.54l19.37-109.87c1.56-8.87,10.02-16.07,18.9-16.07h149.47c8.87,0,14.8,7.19,13.23,16.07l-16.54,93.8Z"/></g></svg>
